<svg width="64" height="22" viewBox="0 0 64 22" fill="none" xmlns="http://www.w3.org/2000/svg">
<path d="M62.809 11.7002H1.19141C0.804901 11.7002 0.491211 11.3865 0.491211 11C0.491211 10.6135 0.804901 10.2998 1.19141 10.2998H62.809C63.1962 10.2998 63.5092 10.6135 63.5092 11C63.5092 11.3865 63.1962 11.7002 62.809 11.7002Z" fill="white"/>
<path d="M53.0461 21.463C52.8668 21.463 52.6876 21.3943 52.551 21.2578C52.2773 20.984 52.2773 20.5415 52.551 20.2677L61.8189 10.9999L52.551 1.73204C52.2773 1.45826 52.2773 1.01573 52.551 0.741955C52.8248 0.468177 53.2673 0.468177 53.5411 0.741955L63.304 10.5048C63.5778 10.7786 63.5778 11.2211 63.304 11.4949L53.5411 21.2578C53.4039 21.395 53.2253 21.463 53.0461 21.463Z" fill="white"/>
</svg>
